<svg width="107" height="85" viewBox="0 0 107 85" fill="none" xmlns="http://www.w3.org/2000/svg">
<g clip-path="url(#clip0_82_92)">
<path d="M69.5479 42.4991L50.5148 61.7101M69.5479 42.4991L50.5148 23.2881M69.5479 42.4991L36.2021 42.4994M34.15 82.9999L71.6 82.9999C79.0907 82.9999 82.836 82.9999 85.6971 81.5285C88.2138 80.2342 90.2599 78.1689 91.5422 75.6288C93 72.7409 93 68.9606 93 61.3999L93 23.5999C93 16.0392 93 12.2588 91.5422 9.37102C90.2599 6.83083 88.2138 4.76559 85.6971 3.4713C82.8361 1.99989 79.0907 1.99989 71.6 1.99989L34.15 1.99988C26.6593 1.99988 22.9139 1.99988 20.0529 3.47129C17.5362 4.76558 15.4901 6.83082 14.2078 9.37101C12.75 12.2588 12.75 16.0392 12.75 23.5999L12.75 61.3999C12.75 68.9606 12.75 72.7409 14.2078 75.6287C15.4901 78.1689 17.5362 80.2342 20.0529 81.5285C22.9139 82.9999 26.6593 82.9999 34.15 82.9999Z" stroke="#E8E8E8" stroke-width="4" stroke-linecap="round" stroke-linejoin="round"/>
</g>
<defs>
<clipPath id="clip0_82_92">
<rect width="107" height="85" fill="white"/>
</clipPath>
</defs>
</svg>
