<svg width="29" height="29" viewBox="0 0 29 29" fill="none" xmlns="http://www.w3.org/2000/svg">
<path d="M17.5752 21.0968C17.5752 23.0276 16.01 24.5929 14.0792 24.5929C12.1484 24.5929 10.5831 23.0276 10.5831 21.0968M22.9367 2.34631C23.9163 3.55431 24.6124 5.00336 24.9266 6.59568M5.81516 2.34631C4.83563 3.55431 4.13945 5.00336 3.82531 6.59568M13.8312 2.50417H14.5066C17.1371 2.50417 19.5026 4.10566 20.4795 6.548C20.9639 7.75905 21.3086 9.0214 21.507 10.3106L22.0269 13.6899C22.2574 15.1887 22.9599 16.5749 24.0321 17.6471C25.155 18.7699 24.3597 20.6898 22.7718 20.6898H5.56597C3.97805 20.6898 3.18282 18.7699 4.30565 17.6471C5.3779 16.5749 6.08034 15.1887 6.31092 13.6899L6.83081 10.3106C7.02915 9.0214 7.37387 7.75905 7.85829 6.548C8.83522 4.10566 11.2007 2.50417 13.8312 2.50417Z" stroke="#E8E8E8" stroke-width="2.21747" stroke-linecap="round" stroke-linejoin="round"/>
</svg>
