<svg width="29" height="29" viewBox="0 0 29 29" fill="none" xmlns="http://www.w3.org/2000/svg">
<path d="M2.34644 8.21297H20.1801C22.1514 8.21297 23.137 8.21297 23.8899 8.5966C24.5522 8.93406 25.0907 9.47252 25.4281 10.1348C25.8118 10.8877 25.8118 11.8734 25.8118 13.8446V19.007C25.8118 20.9783 25.8118 21.9639 25.4281 22.7169C25.0907 23.3791 24.5522 23.9176 23.8899 24.2551C23.137 24.6387 22.1514 24.6387 20.1801 24.6387H7.97812C6.00684 24.6387 5.02121 24.6387 4.26828 24.2551C3.60599 23.9176 3.06753 23.3791 2.73007 22.7169C2.34644 21.9639 2.34644 20.9783 2.34644 19.007V8.21297ZM2.34644 8.21297H17.5989L16.32 6.16679C15.7162 5.20061 15.4142 4.71751 15.0053 4.36706C14.6434 4.05689 14.2222 3.82346 13.7674 3.68093C13.2535 3.5199 12.6838 3.5199 11.5444 3.5199H6.10089C4.78671 3.5199 4.12962 3.5199 3.62767 3.77565C3.18614 4.00062 2.82716 4.3596 2.60219 4.80113C2.34644 5.30308 2.34644 5.96017 2.34644 7.27435V8.21297ZM16.1622 18.8633L18.4671 21.1685M17.2134 16.1536C17.2134 18.2308 15.5295 19.9148 13.4523 19.9148C11.375 19.9148 9.6911 18.2308 9.6911 16.1536C9.6911 14.0764 11.375 12.3924 13.4523 12.3924C15.5295 12.3924 17.2134 14.0764 17.2134 16.1536Z" stroke="#E8E8E8" stroke-width="2.21747" stroke-linecap="round"/>
</svg>
