<svg width="29" height="29" viewBox="0 0 29 29" fill="none" xmlns="http://www.w3.org/2000/svg">
<path d="M23.226 19.9454C24.1245 20.5207 24.6387 21.2426 24.6387 21.955C24.6387 24.1149 19.9111 25.8118 14.0793 25.8118C8.2475 25.8118 3.5199 24.1149 3.5199 21.955C3.5199 21.2675 3.99882 20.5674 4.83982 20.0061M22.2922 10.7446C22.2922 15.8145 17.758 19.7254 15.4276 21.4006C15.0333 21.6841 14.8362 21.8258 14.5135 21.9079C14.2753 21.9686 13.8833 21.9686 13.6451 21.9079C13.3224 21.8258 13.1253 21.6841 12.731 21.4006C10.4006 19.7254 5.86643 15.8145 5.86643 10.7446C5.86643 6.1064 9.54346 2.34644 14.0793 2.34644C18.6151 2.34644 22.2922 6.1064 22.2922 10.7446ZM16.4258 10.5593C16.4258 11.8553 15.3753 12.9058 14.0793 12.9058C12.7833 12.9058 11.7328 11.8553 11.7328 10.5593C11.7328 9.26335 12.7833 8.21277 14.0793 8.21277C15.3753 8.21277 16.4258 9.26335 16.4258 10.5593Z" stroke="#E8E8E8" stroke-width="2.21747" stroke-linecap="round" stroke-linejoin="round"/>
</svg>
